<svg id="Layer_1" data-name="Layer 1" xmlns="http://www.w3.org/2000/svg" viewBox="0 0 120 120"><defs><style>.cls-1{fill:#e5262f;}.cls-2{fill:#fff;}</style></defs><rect class="cls-1" x="0.1" width="119.8" height="119.8"/><path class="cls-2" d="M9.36,77A16.16,16.16,0,0,1,3,70.92a17.72,17.72,0,0,1,0-17.46,16.47,16.47,0,0,1,6.35-6.07,18.63,18.63,0,0,1,9-2.19,19,19,0,0,1,7.41,1.41,15.23,15.23,0,0,1,5.66,4.11l-4,3.73a11.55,11.55,0,0,0-8.82-3.87,12.42,12.42,0,0,0-6.09,1.48,10.83,10.83,0,0,0-4.2,4.13,12.66,12.66,0,0,0,0,12,10.76,10.76,0,0,0,4.2,4.13,12.42,12.42,0,0,0,6.09,1.48,11.49,11.49,0,0,0,8.82-3.91l4,3.77a15.07,15.07,0,0,1-5.69,4.11,19.06,19.06,0,0,1-7.43,1.41A18.66,18.66,0,0,1,9.36,77Z"/><path class="cls-2" d="M112.66,47.09a10.82,10.82,0,0,1,4.89,4,12.39,12.39,0,0,1,0,12.53,10.75,10.75,0,0,1-4.89,4.08,18.14,18.14,0,0,1-7.47,1.42H97.73V78.7H91.6v-33h13.59A18.14,18.14,0,0,1,112.66,47.09ZM111,62.28a5.93,5.93,0,0,0,2.08-4.86A5.93,5.93,0,0,0,111,52.56q-2.07-1.7-6.09-1.7H97.73V64h7.17Q108.92,64,111,62.28Z"/><path class="cls-2" d="M88.52,63.67,78,96.7H66L60.68,79.05,55.07,96.7H43.13l-10.57-33H44l5.75,18.78,6.09-18.78H66.11l5.76,19,6.08-19Z"/><path class="cls-2" d="M78,60.71l-6.08-19-5.76,19H55.87L49.78,41.93,44,60.71H32.56l10.57-33H55.07l5.61,17.64L66,27.68H78l10.57,33Z"/></svg>