<?xml version="1.0" standalone="no"?>
<!DOCTYPE svg PUBLIC "-//W3C//DTD SVG 20010904//EN"
 "http://www.w3.org/TR/2001/REC-SVG-20010904/DTD/svg10.dtd">
<svg version="1.0" xmlns="http://www.w3.org/2000/svg"
 width="1216.000000pt" height="1216.000000pt" viewBox="0 0 1216.000000 1216.000000"
 preserveAspectRatio="xMidYMid meet">
<metadata>
Created by potrace 1.14, written by Peter Selinger 2001-2017
</metadata>
<g transform="translate(0.000000,1216.000000) scale(0.100000,-0.100000)"
fill="#000000" stroke="none">
<path d="M2970 12028 c-23 -73 -44 -140 -46 -148 -3 -8 -6 -17 -6 -20 -1 -3
-11 -33 -24 -67 -12 -35 -20 -63 -18 -63 3 0 0 -9 -6 -21 -6 -11 -13 -28 -15
-37 -1 -9 -20 -68 -40 -131 -20 -62 -38 -118 -40 -125 -1 -6 -7 -24 -13 -39
-7 -16 -12 -31 -12 -34 0 -6 -127 -406 -137 -433 -3 -8 -8 -21 -10 -27 -1 -7
-5 -19 -6 -25 -2 -7 -7 -20 -10 -28 -3 -8 -31 -96 -62 -195 -32 -99 -71 -220
-87 -270 -16 -49 -32 -101 -34 -115 -3 -13 -10 -30 -15 -37 -6 -7 -8 -17 -4
-23 3 -5 2 -10 -3 -10 -5 0 -9 -6 -9 -13 0 -13 -37 -131 -54 -172 -8 -20 -31
-105 -31 -115 0 -3 -5 -14 -11 -25 -6 -11 -12 -25 -13 -31 -1 -6 -14 -51 -30
-100 -15 -49 -29 -91 -29 -94 -1 -3 -4 -12 -8 -20 -11 -30 -68 -206 -72 -227
-3 -12 -10 -35 -17 -50 -6 -16 -12 -35 -13 -43 -1 -8 -26 -87 -55 -175 -28
-88 -61 -189 -72 -225 -11 -36 -24 -74 -29 -85 -4 -11 -26 -81 -49 -155 -23
-74 -50 -159 -61 -187 -10 -29 -16 -53 -14 -53 3 0 0 -10 -7 -22 -7 -13 -13
-25 -13 -28 -1 -3 -5 -22 -9 -42 -5 -21 -12 -38 -18 -38 -5 0 -7 -4 -4 -8 3
-5 -2 -28 -10 -53 -23 -64 -176 -542 -178 -554 -1 -5 -4 -14 -7 -20 -5 -8 -14
-39 -25 -80 -1 -5 -8 -23 -15 -40 -6 -16 -13 -34 -13 -40 -1 -5 -5 -21 -9 -35
-5 -14 -40 -123 -79 -244 -38 -120 -71 -224 -72 -232 -1 -7 -5 -17 -9 -20 -4
-4 -7 -13 -7 -20 0 -7 -5 -25 -11 -41 -6 -15 -10 -30 -11 -33 0 -3 -6 -21 -14
-40 -8 -19 -14 -36 -14 -38 2 -4 -40 -144 -50 -167 -5 -11 -26 -74 -46 -140
-20 -66 -38 -125 -41 -130 -2 -7 320 -11 1007 -11 l1010 0 12 36 c7 19 13 37
13 40 4 16 28 96 51 165 14 44 27 87 29 95 2 8 10 34 19 58 8 23 15 43 14 45
0 1 14 49 32 106 18 57 33 109 35 115 1 6 5 18 8 26 3 8 25 78 47 155 23 77
44 147 47 155 3 8 7 20 8 25 2 6 18 57 36 115 18 58 34 107 34 110 1 3 6 21
12 40 40 128 95 307 97 317 1 7 5 16 9 19 4 4 7 17 7 29 0 12 3 25 7 29 4 3 8
12 9 19 1 7 18 66 39 131 20 65 38 123 40 130 1 6 4 18 7 26 8 21 89 283 92
295 1 6 12 43 25 83 13 40 24 78 25 85 2 7 8 25 14 40 7 16 12 32 12 37 0 5 7
31 16 57 9 26 18 53 19 58 1 6 5 17 8 25 9 24 147 478 170 558 14 51 24 69 31
62 10 -10 42 -108 53 -162 3 -16 9 -28 14 -28 5 0 9 -9 9 -20 0 -11 6 -37 14
-57 7 -21 35 -105 61 -188 26 -82 51 -159 55 -170 11 -27 40 -116 45 -139 2
-11 12 -42 22 -70 9 -28 18 -54 19 -58 1 -5 3 -10 4 -13 3 -5 3 -6 15 -50 4
-16 10 -34 14 -40 3 -5 6 -12 6 -15 2 -11 67 -217 75 -235 5 -11 36 -108 70
-215 34 -107 63 -199 64 -205 2 -5 4 -12 4 -15 1 -3 11 -32 22 -65 12 -33 23
-64 24 -70 1 -5 5 -16 9 -22 5 -7 6 -13 2 -13 -3 0 1 -13 10 -30 9 -16 13 -30
11 -30 -3 0 8 -37 24 -82 28 -81 143 -436 146 -450 1 -5 3 -10 4 -13 1 -3 3
-8 4 -12 1 -5 22 -69 46 -143 24 -74 45 -137 45 -140 1 -3 4 -12 7 -20 8 -21
118 -368 130 -410 6 -19 14 -43 19 -52 5 -10 9 -25 9 -33 0 -8 3 -16 8 -16 4
-1 413 -2 909 -3 l903 -2 11 34 c6 18 12 39 13 45 1 7 4 17 8 22 3 6 35 109
71 230 36 121 82 272 102 335 19 63 38 124 40 135 3 10 18 62 34 115 50 159
72 234 76 251 2 9 11 39 20 65 9 27 18 56 20 64 2 8 10 35 18 60 13 37 21 66
42 140 3 13 50 163 72 235 14 44 26 85 27 90 2 6 6 17 9 25 4 11 36 115 52
170 1 3 5 22 9 43 5 20 13 37 19 37 6 0 8 3 5 6 -3 3 0 26 7 52 30 106 67 228
75 247 8 17 29 90 35 120 2 6 10 33 20 60 9 28 18 58 20 67 2 9 15 52 29 95
13 43 32 105 41 138 10 33 22 74 28 90 6 17 12 36 13 42 1 7 11 41 22 75 11
35 30 97 41 138 41 141 39 141 83 0 22 -69 44 -133 49 -142 5 -10 9 -28 9 -41
0 -13 4 -27 8 -33 7 -7 29 -72 38 -109 1 -5 9 -30 17 -55 16 -48 132 -412 149
-470 6 -19 14 -44 18 -55 4 -11 14 -40 21 -65 7 -25 17 -51 22 -57 5 -7 7 -13
3 -13 -3 0 0 -16 8 -35 8 -19 12 -35 9 -35 -3 0 0 -6 6 -14 6 -7 12 -25 13
-40 1 -14 7 -26 12 -26 5 0 6 -3 3 -6 -3 -4 -2 -15 4 -26 6 -11 12 -28 14 -38
3 -17 90 -292 140 -445 36 -112 57 -179 60 -195 2 -8 4 -16 5 -17 2 -2 4 -7 5
-13 1 -5 4 -12 5 -15 1 -3 3 -8 5 -12 1 -5 4 -15 8 -23 3 -8 20 -62 37 -120
17 -58 34 -112 37 -120 4 -8 7 -17 8 -20 0 -3 6 -21 12 -40 72 -222 116 -363
142 -450 18 -58 35 -112 40 -120 5 -9 12 -31 17 -50 4 -19 9 -38 10 -42 1 -5
3 -10 4 -13 1 -3 3 -8 5 -12 1 -5 4 -15 8 -23 3 -8 21 -64 40 -125 l34 -110
929 0 c815 0 929 2 926 15 -2 8 -5 22 -7 30 -2 8 -19 62 -37 120 -19 58 -41
125 -48 150 -8 25 -18 51 -24 59 -6 8 -10 17 -8 20 4 6 -12 65 -32 116 -6 17
-11 32 -11 35 -1 6 -74 239 -82 260 -3 8 -7 20 -8 25 -2 6 -12 37 -23 70 -48
145 -125 391 -125 403 0 6 -4 12 -9 12 -5 0 -7 4 -4 8 3 5 -1 20 -9 35 -8 15
-12 27 -10 27 3 0 0 12 -6 28 -6 15 -12 34 -14 42 -2 8 -13 42 -25 75 -11 33
-21 61 -21 62 0 2 -1 8 -3 15 -3 7 -16 51 -31 98 -15 47 -30 94 -35 105 -9 22
-32 107 -32 115 0 3 -4 11 -10 18 -6 6 -7 12 -3 12 4 0 2 7 -5 15 -7 8 -9 15
-5 15 4 0 2 6 -4 14 -6 7 -12 25 -13 40 -1 14 -5 26 -8 26 -3 0 -7 12 -8 26
-1 15 -6 32 -12 39 -5 6 -11 20 -13 31 -2 10 -15 55 -29 99 -58 177 -179 555
-178 557 0 2 -15 48 -33 103 -19 55 -35 103 -36 107 -1 4 -3 13 -6 20 -2 7
-16 51 -31 98 -58 186 -126 397 -140 433 -7 20 -12 37 -9 37 2 0 -4 20 -15 45
-11 25 -19 46 -19 48 2 5 -23 93 -29 102 -4 6 -8 17 -10 25 -3 17 -7 29 -15
50 -3 8 -24 76 -47 150 -23 74 -53 166 -66 204 -13 38 -21 73 -18 78 3 4 1 8
-4 8 -7 0 -28 61 -33 95 0 2 -9 28 -20 57 -11 29 -21 58 -23 63 -8 33 -38 133
-45 150 -16 38 -31 92 -31 108 0 9 -4 17 -10 17 -5 0 -9 3 -8 8 2 8 4 2 -60
202 -25 80 -47 147 -47 150 -1 3 -10 32 -20 65 -11 33 -20 62 -20 65 -1 3 -4
12 -8 20 -8 21 -68 213 -71 225 -1 6 -4 15 -7 20 -3 6 -12 33 -19 60 -7 28
-17 56 -23 63 -5 6 -7 12 -3 12 4 0 0 14 -9 30 -9 17 -13 30 -11 30 3 0 0 14
-5 30 l-11 30 -1054 0 c-792 0 -1054 -3 -1054 -12 0 -12 -43 -154 -93 -308
-17 -52 -32 -98 -33 -102 -1 -5 -3 -10 -4 -13 -1 -3 -3 -13 -4 -22 -1 -10 -4
-22 -7 -28 -4 -5 -18 -50 -33 -100 -28 -92 -48 -158 -71 -230 -7 -22 -27 -87
-45 -145 -76 -251 -102 -336 -107 -350 -6 -14 -9 -27 -16 -55 -1 -5 -6 -16
-10 -22 -5 -7 -5 -17 -2 -23 3 -5 1 -10 -6 -10 -7 0 -10 -3 -6 -6 3 -3 -1 -25
-10 -47 -8 -23 -16 -49 -18 -57 -2 -8 -14 -46 -26 -85 -12 -38 -23 -74 -25
-80 -1 -5 -23 -77 -49 -160 -26 -82 -51 -166 -57 -185 -5 -19 -12 -42 -15 -50
-3 -8 -7 -19 -8 -25 -2 -5 -11 -37 -21 -70 -10 -33 -19 -62 -19 -65 -1 -3 -4
-12 -8 -20 -3 -8 -22 -71 -43 -140 -20 -69 -39 -129 -42 -135 -4 -5 -8 -17 -9
-25 -1 -9 -23 -81 -48 -160 -25 -80 -48 -152 -50 -160 -15 -64 -19 -76 -26
-86 -5 -6 -10 -23 -11 -38 -1 -14 -6 -26 -10 -26 -4 0 -7 -3 -7 -7 1 -5 1 -16
0 -25 -1 -20 -21 -25 -21 -5 0 6 -21 75 -46 152 -25 77 -47 147 -49 155 -2 8
-4 15 -5 15 -1 0 -3 7 -5 15 -2 8 -10 35 -18 60 -24 72 -118 369 -118 375 0 2
-6 20 -15 40 -8 19 -11 35 -8 35 4 0 2 6 -3 13 -9 10 -52 142 -57 172 -1 6 -4
15 -7 20 -3 6 -11 30 -19 55 -7 25 -26 83 -41 130 -51 158 -107 334 -159 500
-28 91 -55 176 -60 190 -12 35 -152 472 -155 485 -2 11 -6 23 -24 75 -7 19
-14 42 -16 50 -2 8 -8 29 -15 45 -6 17 -11 30 -10 30 1 0 -1 7 -4 15 -2 8 -32
103 -66 210 -33 107 -65 205 -70 218 l-10 22 -1048 0 -1049 0 -43 -132z"/>
<path d="M1155 5793 c4 -10 14 -40 22 -68 19 -63 52 -165 60 -185 3 -8 8 -22
10 -30 5 -20 9 -32 16 -50 3 -8 28 -89 57 -180 28 -91 55 -174 59 -185 5 -11
18 -51 30 -90 11 -38 44 -140 72 -225 27 -85 51 -163 52 -172 1 -10 5 -18 10
-18 4 0 6 -4 3 -8 -3 -5 2 -21 10 -37 8 -15 12 -30 9 -33 -3 -3 -1 -10 4 -16
5 -6 17 -38 27 -71 9 -33 18 -62 19 -65 1 -3 5 -18 10 -35 4 -16 10 -34 14
-40 3 -5 6 -15 7 -22 1 -7 14 -50 29 -95 15 -46 28 -87 30 -93 4 -17 5 -17 35
-104 16 -47 27 -88 24 -93 -3 -4 0 -8 7 -8 7 0 9 -3 6 -7 -4 -3 -2 -12 4 -20
6 -7 9 -13 6 -13 -3 0 1 -16 9 -35 8 -19 11 -35 8 -35 -4 0 -2 -6 4 -12 6 -7
13 -30 17 -50 4 -21 12 -38 18 -38 6 0 8 -3 4 -6 -3 -3 4 -31 15 -62 11 -32
22 -68 24 -82 3 -13 10 -30 16 -37 6 -7 8 -13 4 -13 -3 0 1 -17 8 -37 24 -63
119 -367 119 -380 0 -7 5 -13 10 -13 6 0 7 -3 4 -6 -3 -4 -1 -16 5 -28 6 -11
13 -30 14 -41 2 -11 13 -49 25 -85 24 -75 28 -88 29 -95 0 -3 7 -19 15 -35 9
-17 13 -30 10 -30 -3 0 2 -17 9 -37 8 -21 38 -112 66 -203 29 -91 56 -173 61
-182 5 -10 9 -27 9 -37 0 -11 5 -23 11 -26 6 -4 8 -13 5 -21 -3 -7 -1 -16 3
-18 5 -3 12 -20 16 -38 4 -18 9 -35 10 -38 1 -3 4 -12 8 -20 5 -13 81 -251
149 -470 11 -36 24 -74 29 -85 4 -11 26 -81 49 -155 23 -74 45 -144 49 -155 5
-11 18 -49 29 -85 11 -36 48 -153 83 -260 34 -107 64 -199 65 -205 1 -5 9 -29
18 -52 8 -24 13 -43 10 -43 -2 0 2 -13 11 -29 8 -17 16 -38 18 -48 6 -39 71
-228 79 -231 4 -2 6 -7 3 -12 -2 -4 14 -64 37 -134 l41 -126 1058 0 1058 0 52
162 c29 89 52 168 52 175 0 7 4 13 8 13 4 0 10 17 15 38 8 41 8 41 17 62 8 21
91 283 93 295 1 6 11 37 22 70 18 53 78 240 142 440 12 39 23 75 24 80 5 24
29 91 37 101 5 6 6 13 3 16 -2 3 2 23 10 44 17 44 87 264 90 279 1 6 7 24 13
40 15 42 74 228 77 245 1 8 7 24 13 35 6 11 11 23 11 28 1 4 8 32 17 62 8 30
15 57 15 60 0 3 7 19 15 35 9 17 13 30 10 30 -2 0 4 24 14 53 18 47 121 369
127 392 1 6 9 29 17 52 9 22 13 44 10 47 -4 3 -1 6 5 6 7 0 11 3 10 8 -2 9 13
74 21 87 3 6 6 13 7 18 1 4 3 9 4 12 1 3 3 8 4 13 23 86 28 96 39 77 6 -11 12
-25 13 -32 1 -6 7 -27 12 -45 59 -190 83 -269 86 -285 2 -10 11 -36 20 -56 8
-20 13 -37 11 -37 -2 0 5 -26 16 -57 11 -32 19 -58 19 -58 -2 0 5 -24 19 -67
7 -20 14 -46 16 -57 2 -11 8 -28 13 -38 6 -10 10 -21 10 -26 1 -15 67 -237
118 -397 13 -41 24 -80 24 -87 0 -6 5 -24 12 -40 6 -15 12 -33 14 -40 3 -15
24 -83 31 -103 7 -17 6 -13 27 -90 8 -30 22 -75 30 -99 9 -24 13 -47 10 -52
-3 -5 0 -9 5 -9 6 0 10 -3 9 -7 0 -5 1 -15 4 -23 5 -12 26 -84 33 -110 1 -3 7
-25 15 -50 7 -25 15 -49 16 -55 1 -5 14 -48 29 -95 21 -68 74 -245 89 -295 2
-5 6 -17 9 -25 5 -12 33 -107 43 -145 1 -5 12 -41 24 -80 12 -38 22 -74 23
-80 2 -5 6 -16 10 -22 5 -7 6 -13 2 -13 -3 0 0 -10 7 -22 6 -13 12 -30 13 -38
1 -8 10 -42 20 -75 10 -33 19 -63 21 -67 1 -5 2 -9 4 -10 1 -2 3 -10 5 -18 2
-8 14 -50 27 -92 l23 -78 1050 0 1051 0 19 58 c11 31 20 59 20 62 1 6 34 107
42 130 3 8 7 20 9 25 1 6 14 46 28 90 14 44 26 85 26 92 0 7 4 13 8 13 4 0 8
8 9 18 1 9 25 89 53 177 29 88 61 189 72 225 10 36 23 74 28 85 10 23 48 141
55 169 7 31 26 90 35 111 5 11 14 38 20 60 6 22 14 47 17 55 3 8 7 21 9 28 1
7 10 34 18 60 9 26 39 119 67 207 28 88 59 183 69 211 11 29 16 55 13 58 -4 3
-2 6 4 6 5 0 10 6 10 13 0 6 10 44 22 82 29 90 30 94 31 100 1 3 7 20 16 40 8
19 11 35 7 35 -4 0 -2 5 5 12 7 7 12 22 12 35 0 13 4 23 8 23 5 0 9 6 9 13 0
12 77 262 115 371 11 32 21 63 22 70 1 6 5 17 9 24 5 6 5 12 1 12 -3 0 -1 6 5
14 6 7 12 25 13 40 1 14 5 26 9 26 3 0 6 6 6 13 0 6 13 48 28 92 15 44 29 86
30 95 2 8 35 111 74 229 38 118 68 218 65 222 -2 4 -1 9 3 11 5 1 18 37 31 78
13 41 26 82 29 90 4 8 7 18 8 23 2 4 3 8 4 10 2 1 4 12 6 23 3 12 10 34 16 50
7 16 13 34 14 39 1 6 3 13 5 18 1 4 4 12 5 17 1 6 3 11 5 13 1 1 3 9 5 17 2 8
14 49 28 90 53 158 130 406 130 418 0 6 4 12 8 12 7 0 24 68 21 83 -1 4 2 7 8
7 6 0 9 3 8 8 -1 4 5 27 12 52 8 25 14 47 15 50 19 67 39 127 45 135 5 6 9 15
9 20 1 6 7 28 13 50 6 22 12 42 13 45 2 10 108 336 132 410 14 41 26 80 27 85
1 6 5 16 9 23 5 6 5 12 1 12 -3 0 -1 7 6 15 7 8 10 15 6 15 -4 0 0 14 9 30 9
17 13 30 11 30 -3 0 2 17 11 38 8 20 15 37 14 37 -1 0 0 7 3 15 2 8 12 40 22
70 10 30 19 57 19 60 3 12 24 77 30 93 7 16 -42 17 -933 17 l-941 0 -40 -128
c-23 -70 -41 -131 -41 -134 0 -4 -5 -19 -12 -35 -7 -15 -13 -32 -13 -38 -1 -5
-5 -17 -8 -25 -3 -8 -26 -80 -51 -160 -61 -198 -132 -419 -145 -452 -6 -16 -8
-28 -5 -28 2 0 -2 -14 -11 -30 -9 -16 -13 -30 -10 -30 3 0 1 -9 -5 -21 -11
-20 -21 -53 -22 -76 -1 -7 -4 -13 -8 -13 -3 0 -6 -8 -7 -17 -1 -10 -17 -65
-36 -123 -19 -58 -56 -172 -82 -255 -26 -82 -56 -174 -66 -202 -10 -29 -17
-53 -14 -53 2 0 -4 -20 -15 -45 -11 -25 -17 -45 -13 -45 3 0 0 -7 -7 -15 -7
-9 -10 -18 -7 -22 4 -3 2 -11 -3 -18 -5 -6 -11 -20 -13 -31 -2 -10 -7 -26 -10
-34 -6 -15 -57 -176 -61 -195 -2 -5 -6 -17 -9 -25 -5 -13 -64 -199 -144 -455
-14 -44 -27 -87 -31 -95 -3 -8 -6 -18 -7 -22 -2 -5 -4 -10 -5 -13 -3 -5 -3 -6
-15 -50 -4 -16 -10 -34 -14 -40 -3 -5 -7 -18 -8 -28 -2 -9 -17 -59 -34 -110
-17 -50 -32 -99 -34 -107 -2 -8 -4 -16 -5 -17 -2 -2 -3 -6 -5 -10 -1 -5 -4
-15 -8 -23 -3 -8 -13 -42 -22 -75 -16 -55 -18 -58 -27 -35 -16 41 -71 224 -71
238 0 6 -5 12 -10 12 -6 0 -8 3 -4 6 3 4 0 21 -8 39 -7 19 -11 36 -8 39 3 2 1
11 -3 18 -5 7 -9 16 -10 21 -1 4 -3 9 -4 12 -3 5 -3 6 -15 50 -4 17 -10 35
-14 40 -3 6 -6 17 -8 25 -2 14 -36 126 -160 530 -14 47 -26 91 -26 98 0 6 -3
12 -7 12 -4 0 -7 6 -8 13 -1 14 -10 52 -12 52 -1 0 -3 8 -5 17 -3 18 -23 84
-32 108 -3 8 -7 20 -8 25 -4 16 -51 174 -80 265 -40 130 -87 283 -90 300 -2 8
-13 42 -25 75 -11 33 -20 61 -20 63 0 4 -3 14 -24 87 -10 33 -27 87 -38 120
-11 33 -21 68 -23 78 -4 18 -59 201 -75 247 -17 51 -62 201 -65 217 -2 10 -4
19 -5 21 -2 1 -4 7 -5 12 -1 6 -3 11 -5 13 -3 4 -12 42 -13 60 -1 9 -4 17 -8
17 -4 0 -10 15 -14 33 -10 43 -10 43 -29 107 -9 30 -16 58 -16 63 0 4 -6 20
-15 37 -8 16 -15 40 -15 54 0 14 -4 27 -9 30 -5 3 -12 22 -15 41 l-7 35 -901
-2 -902 -3 -68 -210 c-38 -115 -70 -217 -72 -225 -2 -8 -6 -22 -9 -30 -3 -8
-20 -60 -38 -115 -37 -119 -38 -124 -39 -130 0 -3 -7 -19 -15 -35 -9 -17 -13
-35 -10 -40 3 -5 1 -11 -5 -15 -6 -4 -8 -11 -5 -16 4 -5 1 -9 -6 -9 -7 0 -10
-3 -6 -6 3 -3 -1 -25 -10 -47 -8 -23 -16 -49 -18 -57 -2 -8 -29 -91 -60 -185
-31 -93 -58 -177 -60 -185 -2 -8 -4 -16 -5 -17 -2 -2 -3 -6 -4 -10 -15 -57
-61 -191 -70 -202 -8 -11 -8 -13 1 -7 9 5 8 -1 -2 -21 -13 -26 -43 -117 -50
-153 -2 -8 -10 -33 -18 -55 -9 -22 -34 -101 -58 -175 -23 -74 -45 -144 -50
-155 -8 -20 -42 -125 -44 -135 -1 -3 -14 -45 -30 -95 -15 -49 -28 -91 -27 -92
0 -1 -11 -33 -25 -70 -13 -37 -27 -79 -29 -92 -3 -13 -9 -31 -13 -40 -5 -9
-10 -20 -10 -26 -1 -5 -31 -100 -67 -210 -36 -110 -68 -211 -70 -225 -3 -13
-10 -30 -16 -37 -6 -7 -7 -13 -3 -13 4 0 2 -7 -5 -15 -7 -8 -10 -15 -7 -15 3
0 0 -15 -8 -34 -8 -18 -11 -36 -8 -40 4 -3 2 -6 -4 -6 -5 0 -10 -7 -11 -15 -1
-8 -3 -22 -4 -30 -2 -19 -18 -8 -18 13 0 9 -7 30 -15 45 -8 15 -11 26 -6 23 4
-3 -7 39 -25 92 -18 53 -45 138 -59 187 -14 50 -29 97 -32 105 -8 19 -14 41
-17 60 -1 8 -8 25 -14 38 -7 12 -11 22 -8 22 3 0 -2 16 -10 35 -8 19 -12 35
-10 35 3 0 -1 15 -9 34 -8 18 -11 36 -8 40 4 3 2 6 -3 6 -5 0 -11 12 -12 27
-1 15 -5 29 -10 32 -4 3 -9 15 -10 26 -2 11 -15 56 -30 100 -14 44 -27 85 -28
91 -2 13 -66 220 -92 299 -9 28 -17 52 -17 55 -3 14 -37 127 -42 140 -4 8 -8
20 -8 25 -1 6 -7 23 -14 38 -6 16 -9 33 -5 38 3 5 0 9 -5 9 -6 0 -10 3 -9 8 1
4 -8 41 -22 82 -13 41 -25 81 -26 88 -1 8 -6 21 -10 30 -4 9 -8 24 -8 32 -1 8
-7 29 -13 45 -11 27 -76 233 -78 245 0 3 -9 32 -19 65 -21 71 -25 83 -27 93
-1 4 -12 37 -25 75 -12 37 -21 67 -18 67 2 0 -2 13 -10 28 -8 16 -16 40 -18
53 -2 13 -9 34 -16 47 -7 12 -10 22 -8 22 3 0 -2 19 -10 43 -9 23 -17 49 -19
57 -4 19 -106 351 -136 445 -6 17 -12 37 -14 45 -2 8 -8 29 -15 45 -6 17 -11
30 -10 30 1 0 -2 8 -5 18 -7 16 -64 17 -1017 17 -958 0 -1010 -1 -1003 -17z"/>
</g>
</svg>
