<svg width="177" height="35" viewBox="0 0 177 35" fill="none" xmlns="http://www.w3.org/2000/svg">
<path d="M4.34726 25.0106C2.97444 24.2777 1.92195 23.224 1.14402 21.9414C0.366085 20.6129 0 19.147 0 17.4979C0 15.8488 0.411846 14.3829 1.18978 13.0544C1.96771 11.726 3.0202 10.7182 4.39302 9.98521C5.76585 9.25226 7.27595 8.88579 8.96909 8.88579C10.3419 8.88579 11.5774 9.11483 12.7215 9.61873C13.8655 10.0768 14.8265 10.8098 15.6044 11.6801L13.5909 13.5583C12.4011 12.2299 10.891 11.5885 9.10637 11.5885C7.96236 11.5885 6.90986 11.8176 6.04041 12.3215C5.1252 12.8254 4.43879 13.5125 3.88966 14.4287C3.38629 15.3449 3.11173 16.3527 3.11173 17.4521C3.11173 18.5973 3.38629 19.6051 3.88966 20.4755C4.39302 21.3917 5.1252 22.0788 6.04041 22.5827C6.95562 23.0866 7.96236 23.3157 9.10637 23.3157C10.891 23.3157 12.3554 22.6743 13.5909 21.3459L15.6044 23.2699C14.8265 24.186 13.8655 24.8732 12.7215 25.3313C11.5774 25.7894 10.3419 26.0642 8.96909 26.0642C7.27595 26.11 5.72008 25.7435 4.34726 25.0106Z" fill="white"/>
<path d="M56.6973 9.84659C57.7955 10.3047 58.6192 10.9918 59.1683 11.908C59.7632 12.8242 60.0378 13.8778 60.0378 15.1146C60.0378 16.3057 59.7632 17.4051 59.1683 18.2755C58.5734 19.1917 57.7497 19.8788 56.6973 20.3369C55.599 20.795 54.3635 21.0698 52.8991 21.0698H49.101V25.9256H45.9893V9.11365H52.8991C54.3635 9.11365 55.6448 9.3885 56.6973 9.84659ZM55.8736 17.5425C56.56 16.947 56.9261 16.1683 56.9261 15.0688C56.9261 14.0152 56.56 13.1907 55.8736 12.5951C55.1872 11.9996 54.1347 11.7248 52.8076 11.7248H49.1925V18.3671H52.8076C54.1347 18.4129 55.1414 18.138 55.8736 17.5425Z" fill="white"/>
<path d="M44.4805 18.2795L39.1265 34.9998H33.0861L30.3862 26.067L27.5491 34.9998H21.4629L16.1089 18.2795H21.9205L24.8492 27.8078L27.9151 18.2795H33.0861L36.0148 27.9452L39.0807 18.2795H44.4805Z" fill="white"/>
<path d="M39.1267 16.7661L36.0608 7.10041L33.1321 16.7661H27.9154L24.8494 7.23784L21.9207 16.7661H16.1091L21.4631 0H27.5035L30.3407 8.93278L33.0863 0H39.1267L44.4807 16.7661H39.1267Z" fill="white"/>
<path d="M70.7528 16.9499C70.1122 16.5834 69.6088 16.0795 69.2427 15.484C68.8766 14.8426 68.6936 14.1555 68.6936 13.3767C68.6936 12.598 68.8766 11.865 69.2427 11.2695C69.6088 10.6282 70.1122 10.1701 70.7986 9.80363C71.4392 9.43716 72.1714 9.25392 72.9951 9.25392C73.6358 9.25392 74.1849 9.34554 74.734 9.57458C75.2831 9.80363 75.695 10.0785 76.0611 10.5366L75.3289 11.2695C74.734 10.6282 73.9561 10.3075 73.0409 10.3075C72.446 10.3075 71.8968 10.445 71.3935 10.7198C70.8901 10.9947 70.524 11.3611 70.2495 11.8192C69.9749 12.2773 69.8376 12.827 69.8376 13.4226C69.8376 14.0181 69.9749 14.522 70.2495 15.0259C70.524 15.484 70.8901 15.8504 71.3935 16.1253C71.8968 16.4001 72.4002 16.5376 73.0409 16.5376C73.9561 16.5376 74.6883 16.2169 75.3289 15.5756L76.0611 16.3085C75.695 16.7208 75.2374 17.0415 74.734 17.2705C74.1849 17.4996 73.6358 17.5912 72.9951 17.5912C72.1257 17.4996 71.3935 17.3163 70.7528 16.9499Z" fill="white"/>
<path d="M78.9414 16.9499C78.3008 16.5834 77.7516 16.0795 77.3856 15.484C77.0195 14.8884 76.8364 14.1555 76.8364 13.3767C76.8364 12.598 77.0195 11.9109 77.3856 11.2695C77.7516 10.6282 78.255 10.1243 78.9414 9.80363C79.5821 9.43716 80.3142 9.25392 81.1379 9.25392C81.9616 9.25392 82.6938 9.43716 83.3344 9.80363C83.9751 10.1701 84.4785 10.674 84.8903 11.2695C85.2564 11.9109 85.4394 12.598 85.4394 13.3767C85.4394 14.1555 85.2564 14.8884 84.8903 15.484C84.5242 16.1253 84.0209 16.5834 83.3344 16.9499C82.6938 17.3163 81.9616 17.4996 81.1379 17.4996C80.3142 17.4996 79.5821 17.3163 78.9414 16.9499ZM82.7396 16.0795C83.1972 15.8046 83.5632 15.4382 83.8378 14.9801C84.1124 14.522 84.2497 13.9723 84.2497 13.3767C84.2497 12.7812 84.1124 12.2773 83.8378 11.7734C83.5632 11.2695 83.1972 10.9489 82.7396 10.674C82.2819 10.3991 81.7328 10.2617 81.1379 10.2617C80.543 10.2617 79.9939 10.3991 79.5363 10.674C79.0329 10.9489 78.6669 11.3153 78.3923 11.7734C78.1177 12.2315 77.9804 12.7812 77.9804 13.3767C77.9804 13.9723 78.1177 14.4762 78.3923 14.9801C78.6669 15.4382 79.0329 15.8046 79.5363 16.0795C79.9939 16.3543 80.543 16.4918 81.1379 16.4918C81.7328 16.446 82.2362 16.3543 82.7396 16.0795Z" fill="white"/>
<path d="M94.6886 17.4077V11.4983L91.7599 16.3999H91.2108L88.2821 11.5441V17.4077H87.1838V9.2995H88.1448L91.5311 14.9798L94.8716 9.2995H95.8326V17.3619H94.6886V17.4077Z" fill="white"/>
<path d="M105.668 17.4077V11.4983L102.739 16.3999H102.19L99.3072 11.5441V17.4077H98.209V9.2995H99.17L102.556 14.9798L105.897 9.2995H106.858V17.3619H105.668V17.4077Z" fill="white"/>
<path d="M110.656 16.9499C110.015 16.5834 109.466 16.0795 109.1 15.484C108.734 14.8884 108.551 14.1555 108.551 13.3767C108.551 12.598 108.734 11.9109 109.1 11.2695C109.466 10.6282 109.969 10.1243 110.656 9.80363C111.296 9.43716 112.029 9.25392 112.852 9.25392C113.676 9.25392 114.408 9.43716 115.049 9.80363C115.689 10.1701 116.193 10.674 116.605 11.2695C116.971 11.9109 117.154 12.598 117.154 13.3767C117.154 14.1555 116.971 14.8884 116.605 15.484C116.239 16.1253 115.735 16.5834 115.049 16.9499C114.408 17.3163 113.676 17.4996 112.852 17.4996C112.029 17.4996 111.296 17.3163 110.656 16.9499ZM114.454 16.0795C114.912 15.8046 115.278 15.4382 115.552 14.9801C115.827 14.522 115.964 13.9723 115.964 13.3767C115.964 12.7812 115.827 12.2773 115.552 11.7734C115.278 11.3153 114.912 10.9489 114.454 10.674C113.996 10.3991 113.447 10.2617 112.852 10.2617C112.257 10.2617 111.708 10.3991 111.251 10.674C110.747 10.9489 110.381 11.3153 110.107 11.7734C109.832 12.2315 109.695 12.7812 109.695 13.3767C109.695 13.9723 109.832 14.4762 110.107 14.9801C110.381 15.4382 110.747 15.8046 111.251 16.0795C111.708 16.3543 112.257 16.4918 112.852 16.4918C113.447 16.446 113.996 16.3543 114.454 16.0795Z" fill="white"/>
<path d="M125.851 9.2995V17.4077H124.89L120.039 11.3609V17.4077H118.895V9.2995H119.856L124.707 15.3463V9.2995H125.851Z" fill="white"/>
<path d="M139.578 9.2995L136.878 17.4077H135.688L133.492 10.9486L131.295 17.4077H130.06L127.36 9.34531H128.55L130.746 15.896L133.034 9.34531H134.087L136.329 15.9418L138.571 9.34531H139.578V9.2995Z" fill="white"/>
<path d="M146.849 16.3999V17.4077H140.991V9.2995H146.711V10.3073H142.181V12.8268H146.208V13.7888H142.181V16.3999H146.849Z" fill="white"/>
<path d="M153.854 15.3919H149.553L148.683 17.4075H147.494L151.155 9.34506H152.299L155.959 17.4075H154.77L153.854 15.3919ZM153.488 14.4757L151.749 10.5361L150.01 14.4757H153.488Z" fill="white"/>
<path d="M157.192 9.2995H158.336V16.3999H162.729V17.4077H157.192V9.2995Z" fill="white"/>
<path d="M164.885 10.3073H162.093V9.2995H168.774V10.3073H166.029V17.4077H164.885V10.3073Z" fill="white"/>
<path d="M177.009 9.2995V17.4077H175.865V13.7888H171.243V17.4077H170.099V9.2995H171.243V12.781H175.865V9.2995H177.009Z" fill="white"/>
<path d="M72.8573 20.2547C73.2691 20.4379 73.5437 20.667 73.7725 21.0335C74.0013 21.3541 74.0928 21.7664 74.0928 22.1787C74.0928 22.6368 74.0013 23.0032 73.7725 23.3239C73.5437 23.6446 73.2691 23.9194 72.8573 24.1027C72.4454 24.2859 71.9878 24.3775 71.4844 24.3775H70.2489V26.0266H68.8303V20.0257H71.4387C71.9878 20.0257 72.4454 20.0715 72.8573 20.2547ZM72.3081 22.9574C72.5369 22.7742 72.6285 22.4993 72.6285 22.1787C72.6285 21.858 72.5369 21.5832 72.3081 21.3999C72.0793 21.2167 71.759 21.1251 71.3472 21.1251H70.2031V23.2323H71.3472C71.8048 23.2323 72.1251 23.1407 72.3081 22.9574Z" fill="white"/>
<path d="M83.1563 24.7385H80.3649L79.8158 26.0212H78.3972L81.0971 19.9744H82.4699L85.1698 26.0212H83.7055L83.1563 24.7385ZM82.7445 23.6849L81.7835 21.3487L80.8225 23.6849H82.7445Z" fill="white"/>
<path d="M94.0896 26.0725L92.9456 24.3775H92.8541H91.6185V26.0725H90.2V20.0257H92.8083C93.3574 20.0257 93.815 20.1173 94.1811 20.3005C94.593 20.4837 94.8675 20.7128 95.0963 21.0793C95.3251 21.3999 95.4167 21.8122 95.4167 22.2245C95.4167 22.6826 95.3251 23.0491 95.0963 23.3697C94.8675 23.6904 94.593 23.9652 94.1811 24.1027L95.5539 26.0266H94.0896V26.0725ZM93.7235 21.3999C93.4947 21.2167 93.1744 21.1251 92.7625 21.1251H91.6185V23.2323H92.7625C93.1744 23.2323 93.4947 23.1407 93.7235 22.9574C93.9523 22.7742 94.0438 22.4993 94.0438 22.1787C94.0438 21.858 93.9523 21.5832 93.7235 21.3999Z" fill="white"/>
<path d="M102.145 21.1196H100.223V19.9744H105.485V21.1196H103.563V26.0212H102.145V21.1196Z" fill="white"/>
<path d="M116.238 20.0257V26.0725H115.094L112.074 22.4077V26.0725H110.701V20.0257H111.845L114.865 23.6904V20.0257H116.238Z" fill="white"/>
<path d="M126.761 24.9272V26.0725H122.094V20.0257H126.67V21.1709H123.512V22.4535H126.304V23.553H123.512V24.973H126.761V24.9272Z" fill="white"/>
<path d="M136.146 26.0725L135.001 24.3775H134.91H133.674V26.0725H132.256V20.0257H134.864C135.413 20.0257 135.871 20.1173 136.237 20.3005C136.649 20.4837 136.923 20.7128 137.152 21.0793C137.381 21.3999 137.473 21.8122 137.473 22.2245C137.473 22.6826 137.381 23.0491 137.152 23.3697C136.923 23.6904 136.649 23.9652 136.237 24.1027L137.61 26.0266H136.146V26.0725ZM135.779 21.3999C135.551 21.2167 135.23 21.1251 134.818 21.1251H133.674V23.2323H134.818C135.23 23.2323 135.551 23.1407 135.779 22.9574C136.008 22.7742 136.1 22.4993 136.1 22.1787C136.146 21.858 136.008 21.5832 135.779 21.3999Z" fill="white"/>
<path d="M143.65 25.9756C143.193 25.8382 142.827 25.655 142.552 25.4717L143.01 24.4181C143.284 24.6013 143.559 24.7388 143.925 24.8762C144.291 25.0136 144.657 25.0594 144.977 25.0594C145.389 25.0594 145.664 25.0136 145.847 24.8762C146.03 24.7388 146.121 24.6013 146.121 24.4181C146.121 24.2807 146.076 24.1433 145.938 24.0516C145.847 23.96 145.664 23.8684 145.526 23.8226C145.343 23.7768 145.115 23.6852 144.794 23.6394C144.337 23.5477 143.971 23.4103 143.65 23.3187C143.376 23.2271 143.101 23.0438 142.872 22.769C142.644 22.5399 142.552 22.2193 142.552 21.807C142.552 21.4405 142.644 21.1199 142.827 20.845C143.01 20.5701 143.284 20.3411 143.696 20.1579C144.062 19.9746 144.565 19.9288 145.115 19.9288C145.481 19.9288 145.893 19.9746 146.259 20.0662C146.625 20.1579 146.945 20.2953 147.22 20.4785L146.808 21.5321C146.259 21.2115 145.709 21.074 145.115 21.074C144.703 21.074 144.428 21.1199 144.245 21.2573C144.062 21.3947 143.971 21.5321 143.971 21.7612C143.971 21.9902 144.062 22.1277 144.291 22.2193C144.52 22.3109 144.84 22.4025 145.298 22.5399C145.755 22.6316 146.121 22.769 146.442 22.8606C146.716 22.9522 146.991 23.1355 147.22 23.3645C147.448 23.5935 147.54 23.9142 147.54 24.3265C147.54 24.693 147.448 24.9678 147.265 25.2885C147.082 25.5633 146.762 25.7924 146.396 25.9756C146.03 26.1589 145.526 26.2047 144.977 26.2047C144.565 26.1589 144.108 26.113 143.65 25.9756Z" fill="white"/>
<path d="M158.568 20.0257V26.0725H157.149V23.5988H154.403V26.0725H152.985V20.0257H154.403V22.4077H157.149V20.0257H158.568Z" fill="white"/>
<path d="M164.426 20.0257H165.844V26.0725H164.426V20.0257Z" fill="white"/>
<path d="M175.684 20.2547C176.096 20.4379 176.371 20.667 176.6 21.0335C176.828 21.3541 176.92 21.7664 176.92 22.1787C176.92 22.6368 176.828 23.0032 176.6 23.3239C176.371 23.6446 176.096 23.9194 175.684 24.1027C175.273 24.2859 174.815 24.3775 174.312 24.3775H173.076V26.0266H171.657V20.0257H174.266C174.815 20.0257 175.273 20.0715 175.684 20.2547ZM175.181 22.9574C175.41 22.7742 175.501 22.4993 175.501 22.1787C175.501 21.858 175.41 21.5832 175.181 21.3999C174.952 21.2167 174.632 21.1251 174.22 21.1251H173.076V23.2323H174.22C174.632 23.2323 174.952 23.1407 175.181 22.9574Z" fill="white"/>
</svg>
